<svg version="1.1" viewBox="0.000000 0.000000 2481.000000 3508.000000" xmlns="http://www.w3.org/2000/svg" xmlns:xlink="http://www.w3.org/1999/xlink" stroke-linecap="round" stroke-linejoin="round" stroke-miterlimit="1.500000" fill-rule="evenodd" clip-rule="evenodd" overflow="hidden"><g transform="matrix(1.000000,0.000000,0.000000,1.000000,454.903000,765.881000)"><circle cx="270.828000" cy="1229.990000" r="46.685000" stroke="#1E65F3" stroke-width="2.080000" fill="#B4C9F3"/></g><g transform="matrix(1.000000,0.000000,0.000000,1.000000,742.389000,530.403000)"><circle cx="270.828000" cy="1229.990000" r="46.685000" stroke="#1E65F3" stroke-width="2.080000" fill="#B4C9F3"/></g><g transform="matrix(1.000000,0.000000,0.000000,1.000000,1380.790000,778.358000)"><circle cx="270.828000" cy="1229.990000" r="46.685000" stroke="#1E65F3" stroke-width="2.080000" fill="#B4C9F3"/></g><g transform="matrix(1.000000,0.000000,0.000000,1.000000,1364.310000,561.903000)"><circle cx="270.828000" cy="1229.990000" r="46.685000" stroke="#1E65F3" stroke-width="2.080000" fill="#B4C9F3"/></g><g transform="matrix(1.000000,0.000000,0.000000,1.000000,511.276000,1156.980000)"><circle cx="270.828000" cy="1229.990000" r="46.685000" stroke="#1E65F3" stroke-width="2.080000" fill="#B4C9F3"/></g><g transform="matrix(1.000000,0.000000,0.000000,1.000000,843.433000,1273.770000)"><circle cx="270.828000" cy="1229.990000" r="46.685000" stroke="#1E65F3" stroke-width="2.080000" fill="#B4C9F3"/></g><g transform="matrix(1.000000,0.000000,0.000000,1.000000,1049.670000,632.244000)"><circle cx="270.828000" cy="1229.990000" r="46.685000" stroke="#1E65F3" stroke-width="2.080000" fill="#B4C9F3"/></g><g transform="matrix(1.000000,0.000000,0.000000,1.000000,1243.850000,1110.300000)"><circle cx="270.828000" cy="1229.990000" r="46.685000" stroke="#1E65F3" stroke-width="2.080000" fill="#B4C9F3"/></g><path d=" M 966.531982 1784.689941 L 772.416992 1963.489990" stroke="#BABABA" stroke-width="3.130000"/><path d=" M 782.104980 2340.290039 L 725.731995 2042.560059" stroke="#BABABA" stroke-width="3.130000"/><path d=" M 1134.390015 2457.070068 L 1604.939941 2032.819946" stroke="#BABABA" stroke-width="3.130000"/><path d=" M 1273.810059 1838.579956 L 1049.140015 1788.449951" stroke="#BABABA" stroke-width="3.130000"/><path d=" M 1367.180054 1887.079956 L 1611.400024 1978.869995" stroke="#BABABA" stroke-width="3.130000"/><path d=" M 1067.579956 1760.589966 L 1588.459961 1791.890015" stroke="#BABABA" stroke-width="3.130000"/><path d=" M 1541.250000 2293.600098 L 1651.619995 2055.030029" stroke="#BABABA" stroke-width="3.130000"/><path d=" M 1651.619995 1961.660034 L 1618.660034 1838.579956" stroke="#BABABA" stroke-width="3.130000"/><path d=" M 827.583008 2374.600098 L 1013.219971 1807.079956" stroke="#BABABA" stroke-width="3.130000"/><path d=" M 772.416992 1995.869995 L 1079.439941 2478.350098" stroke="#BABABA" stroke-width="3.130000"/><path d=" M 1160.949951 2503.760010 L 1468.000000 2366.100098" stroke="#BABABA" stroke-width="3.130000"/><path d=" M 828.789978 2386.969971 L 1468.000000 2340.290039" stroke="#BABABA" stroke-width="3.130000"/><g id="use50--Curve-" transform="matrix(0.703389,0.000000,0.000000,0.703389,984.211000,1964.160000)"><path d=" M 442.752014 0.195000 L 394.487000 23.094999 C 394.242004 23.211000 394.022003 23.374001 393.838989 23.575001 C 393.657013 23.775999 393.515991 24.011000 393.424011 24.267000 C 393.333008 24.521999 393.292999 24.794001 393.306000 25.065001 C 393.320007 25.336000 393.386993 25.601000 393.502991 25.847000 L 466.907990 180.584000 C 494.183014 238.147995 486.877991 281.813995 445.407990 301.546997 C 411.847992 317.473999 382.877991 306.362000 360.274994 267.558990 L 273.363007 84.335999 C 238.119003 10.062000 190.115005 -9.624000 133.169998 17.391001 C 96.124001 34.966000 74.636002 66.380997 75.063004 106.250999 C 75.070999 106.722000 74.917999 107.181999 74.628998 107.554001 C 74.338997 107.926003 73.931999 108.188004 73.473000 108.295998 C 73.014000 108.403999 72.532997 108.351997 72.108002 108.148003 C 71.682999 107.945000 71.339996 107.601997 71.137001 107.176003 L 52.164001 67.198997 C 52.048000 66.954002 51.884998 66.734001 51.683998 66.551003 C 51.481998 66.369003 51.247002 66.228996 50.991001 66.139000 C 50.735001 66.047997 50.464001 66.009003 50.193001 66.025002 C 49.922001 66.040001 49.657001 66.108002 49.412998 66.226997 L 1.160000 89.056000 C 0.676000 89.289001 0.303000 89.703003 0.121000 90.209000 C -0.061000 90.714996 -0.037000 91.271004 0.187000 91.760002 L 133.477997 372.820007 C 133.714996 373.313995 134.136002 373.694000 134.651001 373.878998 C 135.167007 374.062988 135.733994 374.036011 136.229996 373.804993 L 184.494003 350.904999 C 184.740005 350.789001 184.960007 350.626007 185.143005 350.424988 C 185.324997 350.223999 185.466003 349.989014 185.557007 349.733002 C 185.649002 349.477997 185.688995 349.207001 185.675003 348.934998 C 185.662003 348.664001 185.595001 348.398987 185.479004 348.153015 L 114.125000 197.744003 C 85.059998 136.455994 90.573997 92.139000 135.139008 70.994003 C 169.339005 54.771000 195.925995 65.681000 219.798004 107.248001 C 219.830002 107.295998 219.858002 107.348000 219.880997 107.402000 L 305.938995 288.846008 C 339.143005 358.815002 390.716003 382.841003 445.183014 357.000000 C 487.281006 337.029999 504.737000 306.967010 503.717010 267.428009 C 503.705994 266.955994 503.856995 266.494995 504.145996 266.119995 C 504.433990 265.746002 504.842010 265.483002 505.300995 265.372986 C 505.760986 265.263000 506.243988 265.313995 506.670013 265.518005 C 507.096008 265.721985 507.438995 266.065002 507.643005 266.492004 L 526.806030 306.895996 C 526.921997 307.140991 527.085022 307.360992 527.286011 307.544006 C 527.487000 307.726013 527.721985 307.867004 527.978027 307.959015 C 528.232971 308.049988 528.504028 308.089996 528.775024 308.076996 C 529.046021 308.062988 529.312012 307.996002 529.557007 307.880005 L 577.822021 284.980011 C 578.067993 284.864014 578.288025 284.700989 578.469971 284.500000 C 578.651978 284.299011 578.791992 284.062988 578.882996 283.807007 C 578.973022 283.550995 579.012024 283.279999 578.997009 283.009003 C 578.981995 282.738007 578.913025 282.472992 578.794006 282.229004 L 445.502991 1.180000 C 445.266998 0.686000 444.845001 0.306000 444.329987 0.121000 C 443.815002 -0.063000 443.247986 -0.036000 442.752014 0.195000 Z" fill="#1E65F3" fill-rule="nonzero"/></g></svg>